HIERARCHY
ROOT Hips
{
	OFFSET 0.000000 0.000000 0.000000 
	CHANNELS 6 Xposition Yposition Zposition Zrotation Yrotation Xrotation
	JOINT LeftUpLeg
	{
		OFFSET 1.363060 -1.794630 0.839290 
		CHANNELS 3 Zrotation Yrotation Xrotation
		JOINT LeftLeg
		{
			OFFSET 2.448110 -6.726130 0.000000 
			CHANNELS 3 Zrotation Yrotation Xrotation
			JOINT LeftFoot
			{
				OFFSET 2.562200 -7.039590 0.000000 
				CHANNELS 3 Zrotation Yrotation Xrotation
				JOINT LeftToeBase
				{
					OFFSET 0.157640 -0.433110 2.322550 
					CHANNELS 3 Zrotation Yrotation Xrotation
					End Site
					{
						OFFSET 0.000000 0.000000 0.000000 
					}
				}
			}
		}
	}
	JOINT RightUpLeg
	{
		OFFSET -1.305520 -1.794630 0.839290 
		CHANNELS 3 Zrotation Yrotation Xrotation
		JOINT RightLeg
		{
			OFFSET -2.542530 -6.985550 0.000000 
			CHANNELS 3 Zrotation Yrotation Xrotation
			JOINT RightFoot
			{
				OFFSET -2.568260 -7.056230 0.000000 
				CHANNELS 3 Zrotation Yrotation Xrotation
				JOINT RightToeBase
				{
					OFFSET -0.164730 -0.452590 2.363150 
					CHANNELS 3 Zrotation Yrotation Xrotation
					End Site
					{
						OFFSET 0.000000 0.000000 0.000000 
					}
				}
			}
		}
	}
	JOINT Spine
	{
		OFFSET 0.028270 2.035590 -0.193380 
		CHANNELS 3 Zrotation Yrotation Xrotation
		JOINT Spine1
		{
			OFFSET 0.056720 2.048850 -0.042750 
			CHANNELS 3 Zrotation Yrotation Xrotation
			JOINT Neck1
			{
				OFFSET -0.054170 1.746240 0.172020 
				CHANNELS 3 Zrotation Yrotation Xrotation
				JOINT Head
				{
					OFFSET 0.104070 1.761360 -0.123970 
					CHANNELS 3 Zrotation Yrotation Xrotation
					End Site
					{
						OFFSET 0.000000 0.000000 0.000000 
					}
				}
			}
			JOINT LeftArm
			{
				OFFSET 3.362410 1.200890 -0.311210 
				CHANNELS 3 Zrotation Yrotation Xrotation
				JOINT LeftForeArm
				{
					OFFSET 4.983000 -0.000000 -0.000000 
					CHANNELS 3 Zrotation Yrotation Xrotation
					JOINT LeftHand
					{
						OFFSET 3.483560 -0.000000 -0.000000 
						CHANNELS 3 Zrotation Yrotation Xrotation
						JOINT LeftHandIndex1
						{
							OFFSET 0.715260 -0.000000 -0.000000 
							CHANNELS 3 Zrotation Yrotation Xrotation
							End Site
							{
								OFFSET 0.000000 0.000000 0.000000 
							}
						}
					}
				}
			}
			JOINT RightArm
			{
				OFFSET -3.136600 1.374050 -0.404650 
				CHANNELS 3 Zrotation Yrotation Xrotation
				JOINT RightForeArm
				{
					OFFSET -5.241900 -0.000000 -0.000000 
					CHANNELS 3 Zrotation Yrotation Xrotation
					JOINT RightHand
					{
						OFFSET -3.444170 -0.000000 -0.000000 
						CHANNELS 3 Zrotation Yrotation Xrotation
						JOINT RightHandIndex1
						{
							OFFSET -0.622530 -0.000000 -0.000000 
							CHANNELS 3 Zrotation Yrotation Xrotation
							End Site
							{
								OFFSET 0.000000 0.000000 0.000000 
							}
						}
					}
				}
			}
		}
	}
}
MOTION
Frames: 13
Frame Time: 0.041667
2.965863 16.897518 47.836686 -174.046326 -4.352091 -150.804883 3.202225 -2.972541 -57.180544 6.546623 18.556719 47.811573 3.991367 -5.046807 18.807206 1.143100 6.789300 19.092800 11.839276 -6.798918 -19.737038 -6.160700 -13.754160 40.346788 2.660830 -19.941931 35.509009 -2.812200 10.384600 -30.231500 -0.225433 3.585215 -3.509352 -4.546303 1.105169 -9.823003 5.920582 -5.435609 -4.190558 2.129500 -2.872700 0.875700 -76.976002 2.875772 39.067109 27.952514 -37.347704 -13.919508 -1.341787 -0.297849 -0.916907 -7.125000 0.000000 0.000000 85.405394 1.273035 38.845478 -42.093742 44.906150 -25.177639 1.411467 1.499640 -1.470106 7.125000 0.000000 0.000000 
2.911972 16.920867 47.499732 -174.531796 -4.714867 -150.790599 2.288382 -2.848817 -56.696912 6.639837 18.527100 48.279867 4.297454 -5.877592 17.726505 1.060500 6.547500 18.381600 12.197600 -7.582395 -22.058243 -7.472812 -14.625207 44.259117 3.095999 -19.752438 33.703376 -2.488200 9.816400 -28.384100 -0.220731 3.299245 -3.492477 -4.369178 0.970904 -9.886290 5.892104 -5.411316 -4.253424 2.094900 -2.870800 0.787400 -76.746533 2.505706 39.696642 28.556238 -37.754160 -14.312132 -1.335781 -0.394071 -0.615543 -7.125000 0.000000 0.000000 85.305966 1.001977 38.374870 -42.512582 45.121008 -25.584472 1.445458 1.385011 -1.094796 7.125000 0.000000 0.000000 
2.862398 16.942224 47.155806 -175.156432 -5.247045 -150.934483 1.352034 -2.851484 -55.959036 6.690009 18.496751 48.696582 4.749895 -7.046003 16.719935 1.315700 7.265200 20.503400 12.456887 -8.442443 -24.209971 -8.625001 -15.358491 48.061557 3.533823 -19.042015 31.021577 -2.733400 10.250400 -29.791300 -0.206094 2.899029 -3.443718 -4.169363 0.781146 -9.796212 5.849038 -5.389978 -4.260307 2.038900 -2.872700 0.799900 -76.479379 1.940949 40.140206 28.901344 -37.970811 -14.543074 -1.320339 -0.341967 -0.473694 -7.125000 0.000000 0.000000 85.221259 0.789655 37.839118 -43.216897 45.461531 -26.262850 1.467020 1.364807 -0.860579 7.125000 0.000000 0.000000 
2.811052 16.985934 46.804908 -175.642595 -5.600360 -150.948128 0.479988 -2.716405 -55.210846 6.778750 18.437534 49.059426 5.043437 -7.718647 15.615157 0.983100 6.311300 17.690400 12.709144 -9.143260 -26.569984 -9.703680 -16.009437 51.831499 4.100203 -18.271585 27.283921 -2.248600 9.365800 -26.946400 -0.195489 2.590410 -3.434479 -3.956528 0.640131 -9.860200 5.852551 -5.316613 -4.268873 2.030300 -2.841100 0.805200 -76.232346 1.578734 40.482329 29.308775 -38.234612 -14.827346 -1.290422 -0.320748 -0.024128 -7.125000 0.000000 0.000000 85.161529 0.349392 37.325479 -44.212933 45.935258 -27.207144 1.490375 1.365677 -0.860357 7.125000 0.000000 0.000000 
2.755391 16.988258 46.469171 -175.828036 -5.696927 -150.710298 -0.080436 -2.481313 -54.903455 6.962712 18.429638 49.639666 5.405175 -8.647647 14.644387 1.085300 6.621000 18.597400 12.911293 -9.240982 -28.926104 -10.556170 -16.513147 54.783839 4.149166 -17.333718 25.400253 -2.387400 9.630300 -27.787700 -0.190356 2.409145 -3.437770 -3.867648 0.558789 -9.804238 5.856146 -5.225832 -4.234065 2.031300 -2.795900 0.820800 -75.970094 1.254127 40.549293 29.658851 -38.457368 -15.089267 -1.270233 -0.337986 0.088826 -7.125000 0.000000 0.000000 85.028034 0.014628 36.867561 -45.075244 46.341021 -28.041009 1.508428 1.391996 -1.172755 7.125000 0.000000 0.000000 
2.702054 16.987262 46.132217 -176.141824 -5.906729 -150.609685 -0.714884 -2.343653 -54.417018 7.149386 18.430085 50.214856 5.754426 -9.493039 13.567815 1.032000 6.461800 18.130200 13.060479 -9.565092 -31.248964 -11.446489 -16.994574 57.833914 4.235149 -16.481635 23.152970 -2.363600 9.585500 -27.644600 -0.180938 2.166146 -3.434412 -3.731481 0.447291 -9.823154 5.842126 -5.145401 -4.220633 2.011500 -2.760300 0.821100 -75.718541 0.936331 40.709080 30.063407 -38.714442 -15.387562 -1.255282 -0.333525 0.325888 -7.125000 0.000000 0.000000 84.919921 -0.371944 36.393574 -46.006774 46.762970 -28.944920 1.521104 1.403182 -1.334771 7.125000 0.000000 0.000000 
2.648827 16.980180 45.796258 -176.399916 -6.058355 -150.491342 -1.268135 -2.208484 -53.957211 7.386545 18.453524 50.879759 6.094049 -10.303721 12.440002 0.953700 6.218900 17.421000 13.187871 -9.781116 -33.576027 -12.233683 -17.403148 60.566580 4.228422 -15.603425 21.106035 -2.378300 9.613200 -27.733000 -0.172316 1.951486 -3.435672 -3.617725 0.348232 -9.848090 5.820699 -5.057751 -4.195741 1.983600 -2.721200 0.829300 -75.460113 0.652310 40.789007 30.465486 -38.968068 -15.693480 -1.245048 -0.321750 0.549323 -7.125000 0.000000 0.000000 84.811140 -0.780142 35.908330 -47.025879 47.210294 -29.940482 1.526995 1.426110 -1.578180 7.125000 0.000000 0.000000 
2.596154 16.967786 45.461185 -176.604043 -6.164258 -150.374708 -1.749925 -2.072038 -53.484267 7.641947 18.479900 51.552871 6.403901 -11.019030 11.346737 0.838400 5.840900 16.323500 13.306028 -9.877272 -35.921803 -12.975111 -17.772420 63.166648 4.158098 -14.700191 19.120203 -2.404700 9.662500 -27.890600 -0.163858 1.758744 -3.441315 -3.519578 0.259143 -9.890920 5.790313 -4.960134 -4.160278 1.947300 -2.677600 0.844800 -75.197893 0.417328 40.800262 30.887575 -39.233359 -16.023388 -1.240347 -0.308846 0.761212 -7.125000 0.000000 0.000000 84.697386 -1.210867 35.414090 -48.129642 47.678593 -31.026330 1.525814 1.453174 -1.872961 7.125000 0.000000 0.000000 
2.544587 16.950192 45.126997 -176.772734 -6.235560 -150.274458 -2.170705 -1.946307 -53.003970 7.922484 18.516565 52.266219 6.689654 -11.669017 10.289110 0.714700 5.402500 15.060200 13.408451 -9.878879 -38.258530 -13.644474 -18.094691 65.517933 4.041957 -13.835849 17.300589 -2.465800 9.775400 -28.252500 -0.155206 1.581746 -3.448602 -3.433327 0.176119 -9.943354 5.748034 -4.856687 -4.112103 1.899100 -2.631800 0.872700 -74.927180 0.219475 40.757006 31.326170 -39.507592 -16.374434 -1.242540 -0.289681 0.954579 -7.125000 0.000000 0.000000 84.580907 -1.648966 34.903240 -49.316901 48.163847 -32.203614 1.518196 1.480288 -2.196379 7.125000 0.000000 0.000000 
2.494680 16.928835 44.793030 -176.916448 -6.289828 -150.204598 -2.540923 -1.839196 -52.505687 8.226543 18.563185 53.023357 6.942625 -12.235290 9.273756 0.578500 4.870600 13.539900 13.499494 -9.806030 -40.590423 -14.245122 -18.378625 67.648633 3.890294 -12.988522 15.555783 -2.543400 9.916300 -28.706200 -0.145319 1.414478 -3.456389 -3.353843 0.096286 -10.008885 5.689206 -4.745541 -4.053533 1.834100 -2.583900 0.911300 -74.645936 0.061657 40.675193 31.792369 -39.797940 -16.755169 -1.251358 -0.263099 1.140067 -7.125000 0.000000 0.000000 84.461798 -2.099881 34.371486 -50.608474 48.671706 -33.493720 1.506254 1.504173 -2.531712 7.125000 0.000000 0.000000 
2.447097 16.903605 44.459396 -177.037150 -6.341784 -150.166647 -2.860660 -1.753211 -51.999820 8.552479 18.620380 53.831592 7.162833 -12.734151 8.332839 0.444300 4.276900 11.856900 13.585978 -9.659146 -42.916161 -14.776257 -18.630060 69.562540 3.714989 -12.163534 13.823491 -2.660600 10.124200 -29.379900 -0.133739 1.253755 -3.461146 -3.282168 0.016978 -10.067340 5.615105 -4.628082 -3.986657 1.754000 -2.534600 0.961200 -74.346019 -0.076807 40.566142 32.286840 -40.103132 -17.165410 -1.263550 -0.234801 1.302171 -7.125000 0.000000 0.000000 84.343872 -2.541629 33.816385 -52.014167 49.202526 -34.908309 1.491619 1.525009 -2.869005 7.125000 0.000000 0.000000 
2.401948 16.874944 44.125097 -177.139029 -6.415851 -150.174795 -3.125917 -1.696221 -51.473853 8.895230 18.687320 54.690999 7.370845 -13.238524 7.499636 0.338700 3.739600 10.345300 13.672519 -9.457837 -45.220164 -15.239654 -18.853316 71.251083 3.525025 -11.385629 12.145542 -2.785000 10.338500 -30.080100 -0.118648 1.095288 -3.462437 -3.214117 -0.064581 -10.127304 5.524541 -4.504254 -3.915364 1.657400 -2.484300 1.016400 -74.024107 -0.192006 40.448829 32.816182 -40.426875 -17.609804 -1.277536 -0.205283 1.430036 -7.125000 0.000000 0.000000 84.226258 -2.980815 33.232957 -53.501780 49.742478 -36.417676 1.478575 1.536292 -3.122262 7.125000 0.000000 0.000000 
2.359898 16.843517 43.789581 -177.214142 -6.530551 -150.227779 -3.319513 -1.674571 -50.919080 9.251543 18.762764 55.592742 7.561648 -13.738584 6.781162 0.247100 3.198700 8.832400 13.772905 -9.211166 -47.498194 -15.632339 -19.051644 72.702251 3.332029 -10.674222 10.526619 -2.930900 10.582300 -30.883800 -0.098477 0.934467 -3.458037 -3.148265 -0.152049 -10.177433 5.421031 -4.372380 -3.845007 1.550100 -2.431600 1.070200 -73.676835 -0.296973 40.324247 33.380718 -40.767738 -18.088971 -1.290899 -0.177437 1.521049 -7.125000 0.000000 0.000000 84.109494 -3.405486 32.623205 -55.103336 50.301517 -38.055088 1.465427 1.544476 -3.367423 7.125000 0.000000 0.000000 
